<?xml version="1.0" standalone="no"?>
<!DOCTYPE svg PUBLIC "-//W3C//DTD SVG 20010904//EN"
 "http://www.w3.org/TR/2001/REC-SVG-20010904/DTD/svg10.dtd">
<svg version="1.0" xmlns="http://www.w3.org/2000/svg"
 width="972.000000pt" height="972.000000pt" viewBox="0 0 972.000000 972.000000"
 preserveAspectRatio="xMidYMid meet">
<metadata>
Created by potrace 1.11, written by Peter Selinger 2001-2013
</metadata>
<g transform="translate(0.000000,972.000000) scale(0.100000,-0.100000)"
fill="#000000" stroke="none">
<path d="M1805 7039 l0 -1921 24 -19 c13 -10 19 -19 15 -19 -5 0 -3 -4 5 -9
11 -7 341 -332 341 -336 0 0 345 -346 767 -768 l768 -767 -1069 -1069 c-588
-588 -1069 -1072 -1070 -1076 -1 -6 5202 -11 5386 -6 24 1 -62 90 -647 676
-371 371 -675 677 -675 680 0 3 301 307 670 675 368 369 670 675 670 681 0 5
3 8 8 6 11 -6 1373 1362 1362 1368 -7 4 -7 13 0 24 6 12 5 22 -1 28 -8 8 -7
17 0 32 8 15 8 21 1 21 -7 0 -7 6 0 21 8 14 8 24 1 32 -6 8 -6 18 -1 27 5 9 5
19 -1 27 -7 8 -7 18 1 32 7 15 8 27 0 40 -7 14 -7 22 0 26 8 5 8 11 0 20 -8
10 -8 19 0 35 8 14 8 25 1 33 -6 8 -6 18 -1 27 5 9 5 19 -1 27 -7 8 -7 18 1
32 7 15 8 27 0 40 -7 14 -7 22 0 26 8 5 8 11 0 20 -8 10 -8 19 0 35 8 14 8 25
1 33 -6 8 -6 18 -1 27 5 9 5 19 -1 27 -7 8 -7 18 1 32 7 13 7 27 2 37 -5 9 -6
33 -2 54 4 21 4 44 0 51 -4 6 -4 24 0 39 4 15 4 33 0 40 -4 6 -4 27 0 46 4 19
4 37 -1 40 -5 3 -5 12 0 23 5 9 6 23 2 30 -5 7 -5 30 -1 51 4 21 4 44 0 51 -4
6 -4 24 0 39 4 15 4 33 0 40 -4 6 -4 27 0 46 4 19 4 37 -1 40 -5 3 -5 12 0 22
6 11 6 24 0 34 -6 11 -5 19 1 23 8 5 8 11 0 20 -8 10 -8 19 0 35 8 14 8 25 1
33 -6 8 -6 18 -1 27 5 9 5 19 -1 27 -7 8 -7 18 1 32 7 15 8 27 0 40 -7 14 -7
22 0 26 8 5 8 11 0 20 -8 10 -8 19 0 35 8 14 8 25 1 33 -6 8 -6 18 -1 27 5 9
5 19 -1 27 -6 7 -7 18 -3 25 4 7 7 24 6 39 -1 16 4 29 13 33 8 3 15 0 15 -6 0
-7 4 -7 13 1 10 7 17 7 24 0 8 -8 17 -8 32 0 15 8 21 8 21 1 0 -7 6 -7 21 0
14 8 24 8 32 1 8 -6 18 -6 27 -1 9 5 19 5 27 -1 8 -7 18 -7 32 1 15 7 21 7 21
0 0 -7 6 -7 21 0 14 8 24 8 32 1 8 -6 18 -6 27 -1 9 5 19 5 27 -1 8 -7 18 -7
32 1 15 7 21 7 21 0 0 -7 6 -7 21 0 14 8 24 8 32 1 8 -6 18 -6 27 -1 9 5 19 5
27 -1 8 -7 18 -7 32 1 15 7 21 7 21 0 0 -7 6 -7 21 0 14 8 24 8 32 1 8 -6 18
-6 27 -1 9 5 19 5 27 -1 8 -7 18 -7 31 0 13 7 22 7 30 -1 9 -9 12 -9 12 2 0
12 -95 120 -102 116 -2 -1 -13 8 -25 21 -12 13 -21 23 -20 23 7 0 -1183 1185
-1192 1188 -6 2 -314 -301 -686 -673 -523 -523 -676 -681 -672 -696 3 -10 1
-17 -4 -13 -11 7 -11 -7 0 -25 5 -7 5 -28 1 -47 -4 -19 -4 -34 1 -34 5 0 5
-10 1 -22 -9 -28 -9 -49 1 -65 4 -7 3 -22 -3 -33 -7 -13 -7 -26 -2 -36 5 -9 6
-32 2 -50 -4 -19 -4 -34 1 -34 5 0 5 -10 1 -22 -9 -28 -9 -49 1 -65 4 -7 3
-22 -3 -33 -7 -13 -7 -26 -2 -36 5 -9 6 -32 2 -50 -4 -19 -4 -34 1 -34 5 0 5
-10 1 -22 -9 -28 -9 -49 1 -65 4 -7 3 -22 -3 -33 -7 -13 -7 -26 -2 -36 5 -9 6
-32 2 -50 -4 -19 -4 -34 1 -34 5 0 5 -10 1 -22 -9 -28 -9 -49 1 -65 4 -7 3
-22 -3 -33 -7 -13 -7 -26 -2 -36 5 -9 6 -32 2 -50 -4 -19 -4 -34 1 -34 5 0 5
-10 1 -22 -9 -28 -9 -49 1 -65 4 -7 3 -22 -3 -33 -7 -13 -7 -26 -2 -36 5 -9 6
-32 2 -50 -4 -19 -4 -34 1 -34 5 0 5 -10 1 -22 -9 -28 -9 -49 1 -65 4 -7 3
-22 -3 -33 -7 -13 -7 -26 -2 -36 5 -9 6 -32 2 -50 -4 -19 -4 -34 1 -34 5 0 5
-10 1 -22 -9 -28 -9 -49 1 -65 4 -7 3 -22 -3 -33 -7 -13 -7 -26 -2 -36 5 -9 6
-32 2 -50 -5 -20 -4 -34 2 -34 5 0 7 -4 4 -8 -9 -15 -15 -62 -7 -62 3 0 7 -8
7 -18 0 -16 -6 -17 -42 -12 -22 4 -49 3 -60 -1 -10 -3 -26 -3 -35 2 -9 5 -19
6 -22 3 -7 -8 -77 -11 -77 -4 0 3 -21 4 -47 2 -62 -4 -62 -4 -103 -3 -19 1
-43 1 -52 1 -10 0 -24 0 -30 0 -7 1 -30 -1 -50 -2 -21 -2 -38 -1 -38 2 0 3
-21 4 -47 2 -27 -1 -52 -3 -58 -3 -5 -1 -32 0 -60 0 -27 0 -57 1 -65 0 -8 0
-879 864 -1935 1920 l-1920 1921 0 -1921z"/>
</g>
</svg>
