<?xml version="1.0" standalone="no"?>
<!DOCTYPE svg PUBLIC "-//W3C//DTD SVG 20010904//EN"
 "http://www.w3.org/TR/2001/REC-SVG-20010904/DTD/svg10.dtd">
<svg version="1.0" xmlns="http://www.w3.org/2000/svg"
 width="992.000000pt" height="992.000000pt" viewBox="0 0 992.000000 992.000000"
 preserveAspectRatio="xMidYMid meet">
<metadata>
Created by potrace 1.14, written by Peter Selinger 2001-2017
</metadata>
<g transform="translate(0.000000,992.000000) scale(0.100000,-0.100000)"
fill="#000000" stroke="none">
<path d="M7585 8710 l-729 -731 727 -727 c400 -400 727 -730 727 -734 0 -4
-486 -494 -1081 -1088 -813 -814 -1084 -1078 -1093 -1071 -7 6 -16 8 -19 4 -4
-3 -169 -6 -368 -6 l-361 0 -80 79 c-43 44 -539 539 -1101 1101 -670 671
-1024 1018 -1027 1008 -3 -8 -5 -469 -5 -1025 1 -555 -2 -1010 -5 -1010 -3 0
-229 225 -504 500 l-499 499 0 95 c0 53 -3 96 -7 96 -3 0 -24 -18 -45 -40 -21
-22 -44 -40 -50 -40 -5 0 -27 18 -49 40 -21 22 -41 40 -45 40 -3 0 -6 -43 -6
-95 l0 -95 -730 -730 -730 -730 -1 -1457 c-1 -802 -2 -1461 -3 -1465 0 -4
-114 -119 -251 -256 l-250 -250 0 -71 0 -71 1082 2 1083 3 2 355 c0 195 1 364
2 375 1 20 7 20 1995 20 1929 0 1995 -1 2014 -19 21 -18 22 -18 45 1 21 16 40
19 121 18 l96 -1 -28 30 c-15 17 -38 39 -50 49 l-24 20 1412 1412 c1182 1182
1416 1412 1438 1411 22 -1 27 4 33 33 5 22 27 54 68 95 34 34 61 64 61 68 0 3
-21 6 -47 6 -27 0 -56 1 -65 1 -16 1 -17 90 -17 1390 l0 1389 350 349 349 348
0 143 0 142 -660 660 -660 660 -142 0 -143 0 -730 -730z m1533 -72 c359 -358
652 -655 652 -660 0 -10 -1295 -1301 -1310 -1306 -5 -2 -305 291 -665 652
l-655 655 655 655 c361 361 660 656 664 656 4 0 301 -293 659 -652z m-97
-2139 c0 -233 -1 -428 -2 -434 -1 -5 0 -14 1 -20 7 -32 6 -56 -2 -61 -4 -3 -6
-10 -2 -15 10 -17 12 -59 2 -65 -4 -3 -6 -10 -2 -15 10 -17 12 -59 2 -65 -4
-3 -6 -10 -2 -15 10 -17 12 -59 2 -65 -4 -3 -6 -10 -2 -15 10 -17 12 -59 2
-65 -4 -3 -6 -10 -2 -15 10 -17 12 -59 2 -65 -4 -3 -6 -10 -2 -15 10 -17 12
-59 2 -65 -4 -3 -6 -10 -2 -15 10 -17 12 -59 2 -65 -4 -3 -6 -10 -2 -15 10
-17 12 -59 2 -65 -4 -3 -6 -10 -2 -15 10 -17 12 -59 2 -65 -4 -3 -6 -10 -2
-15 10 -17 12 -59 2 -65 -4 -3 -6 -10 -2 -15 10 -17 12 -59 2 -65 -4 -3 -6
-10 -2 -15 10 -17 12 -59 2 -65 -4 -3 -6 -10 -2 -15 10 -17 12 -59 2 -65 -4
-3 -6 -10 -2 -15 10 -17 12 -59 2 -65 -4 -3 -6 -10 -2 -16 3 -5 6 -96 6 -201
-1 -313 0 -289 -19 -285 -10 1 -24 -1 -30 -5 -7 -5 -20 -4 -29 1 -9 5 -33 6
-53 2 -21 -4 -46 -5 -57 -3 -20 5 -28 5 -89 3 -37 -1 -66 -1 -112 0 -10 0 -34
0 -53 -1 -19 -1 -45 -1 -57 0 -34 2 -63 2 -108 1 -22 0 -58 -1 -80 -1 -49 -1
-58 -1 -113 3 -23 2 -42 1 -42 -2 0 -5 -23 -4 -118 2 -23 2 -42 0 -42 -3 0 -3
-15 -4 -32 -2 -47 5 -100 4 -106 -1 -2 -3 -13 -1 -23 5 -13 7 -19 6 -19 -1 0
-7 -6 -8 -16 -2 -9 5 -33 6 -53 2 -21 -4 -46 -5 -57 -3 -10 3 -29 4 -41 4 -36
-1 -102 -1 -115 0 -7 0 -29 0 -48 0 -19 -1 -42 -1 -50 0 -8 0 -46 0 -85 -1
-38 0 -89 0 -113 2 -23 2 -42 1 -42 -2 0 -5 -23 -4 -118 2 -23 2 -42 0 -42 -4
0 -4 -10 -4 -22 -2 -13 3 -39 5 -58 4 -40 -3 -60 -2 -113 2 -21 2 -41 0 -43
-4 -2 -4 -14 -4 -27 -2 -27 7 -22 7 -132 3 -47 -2 -67 -1 -118 3 -21 2 -40 1
-43 -3 -3 -5 -54 0 -54 5 0 6 2565 2565 2568 2562 1 -2 3 -194 3 -427z m-3936
-2139 c-3 -6 -15 -6 -29 0 -13 5 -26 7 -29 4 -5 -5 -104 -7 -165 -2 -23 2 -42
0 -42 -3 0 -3 -15 -4 -32 -2 -47 5 -100 4 -106 -1 -2 -3 -13 -1 -23 5 -13 7
-19 6 -19 -1 0 -7 -6 -8 -16 -2 -9 5 -33 6 -53 2 -21 -4 -46 -5 -57 -3 -10 3
-29 4 -41 4 -36 -1 -102 -1 -115 0 -7 0 -29 0 -48 0 -19 -1 -42 -1 -50 0 -8 0
-46 0 -85 -1 -38 0 -89 0 -113 2 -23 2 -42 1 -42 -2 0 -5 -23 -4 -118 2 -23 2
-42 0 -42 -4 0 -4 -10 -4 -22 -2 -13 3 -39 5 -58 4 -19 -2 -45 -2 -57 -1 -34
2 -64 2 -103 1 -47 -1 -110 -1 -132 1 -7 0 -33 0 -56 -2 -24 -1 -47 2 -50 8
-5 8 -8 1663 -3 1706 1 4 386 -378 856 -848 471 -471 853 -860 850 -865z
m-3120 -455 l0 -1315 -624 -624 c-344 -344 -627 -623 -630 -621 -3 2 -6 592
-6 1312 l0 1309 628 627 c345 345 628 627 630 627 1 0 2 -592 2 -1315z m1210
291 c4 -36 14 -48 36 -41 15 5 289 -264 1379 -1354 748 -748 1357 -1361 1353
-1363 -5 -3 -854 -4 -1888 -4 l-1880 1 -2 1895 -3 1895 501 -502 c354 -355
503 -510 504 -527z m5695 -44 c0 -2 -601 -604 -1335 -1338 l-1335 -1335 -1335
1335 c-734 734 -1330 1336 -1325 1338 13 4 5330 4 5330 0z m-6904 -2710 c0
-754 -1 -848 -15 -859 -9 -6 -19 -10 -22 -7 -3 2 -93 3 -200 3 -107 0 -202 0
-211 0 -10 0 -47 0 -83 0 -36 0 -72 0 -80 0 -8 0 -44 0 -80 0 -36 0 -72 0 -80
0 -8 0 -44 0 -80 0 -36 0 -72 0 -80 0 -27 -1 -664 0 -682 0 -10 1 -38 1 -63 0
-24 0 -41 3 -37 8 34 38 1703 1703 1707 1703 3 0 5 -381 6 -848z"/>
</g>
</svg>
